<svg width="117" height="48" viewBox="0 0 117 48" fill="none" xmlns="http://www.w3.org/2000/svg">
<path d="M21 6.74473C22.8313 6.74473 24.3158 5.23487 24.3158 3.37237C24.3158 1.50986 22.8313 0 21 0C19.1687 0 17.6842 1.50986 17.6842 3.37237C17.6842 5.23487 19.1687 6.74473 21 6.74473Z" fill="#8C8C8C"/>
<path d="M29.4316 8.99758L23.561 5.51937C23.8015 5.22223 23.9931 4.88249 24.123 4.51295L31.8316 8.99757L21.0145 15.4751L11.0473 9.16845L6.12987 12.1275L5.58536 11.1493L11.0527 7.87359L21 14.1687L29.4316 8.99758Z" fill="#8C8C8C"/>
<path fill-rule="evenodd" clip-rule="evenodd" d="M3.31579 15.7377C4.53663 15.7377 5.52632 14.7311 5.52632 13.4895C5.52632 12.2478 4.53663 11.2412 3.31579 11.2412C2.09495 11.2412 1.10526 12.2478 1.10526 13.4895C1.10526 14.7311 2.09495 15.7377 3.31579 15.7377ZM3.31579 16.8618C5.14705 16.8618 6.63158 15.352 6.63158 13.4895C6.63158 11.627 5.14705 10.1171 3.31579 10.1171C1.48453 10.1171 0 11.627 0 13.4895C0 15.352 1.48453 16.8618 3.31579 16.8618Z" fill="#8C8C8C"/>
<path fill-rule="evenodd" clip-rule="evenodd" d="M2.87368 31.3927V21.5831L13.4842 27.9906L13.4842 39.7133L18.3845 42.6472L17.8238 43.6159L12.3789 40.356L12.3789 28.6566L3.97895 23.6635V31.4305C5.49243 31.7429 6.63158 33.1038 6.63158 34.7354C6.63158 36.5979 5.14705 38.1077 3.31579 38.1077C1.48453 38.1077 0 36.5979 0 34.7354C0 33.0253 1.25144 31.6125 2.87368 31.3927Z" fill="#BFBFBF"/>
<path fill-rule="evenodd" clip-rule="evenodd" d="M35.9327 36.598L28.2947 40.6979L28.3234 28.2202L38.1206 22.7731L38.1206 16.5587H39.1612L39.1612 23.6812L29.3831 29.1195V38.7473L35.2571 35.6482C35.0452 35.2039 34.9263 34.7051 34.9263 34.178C34.9263 32.3155 36.4108 30.8057 38.2421 30.8057C40.0734 30.8057 41.5579 32.3155 41.5579 34.178C41.5579 36.0405 40.0734 37.5504 38.2421 37.5504C37.3443 37.5504 36.5298 37.1875 35.9327 36.598Z" fill="#BFBFBF"/>
<path d="M24.3158 23.6066C24.3158 23.4487 24.3051 23.2933 24.2845 23.1411L36.6027 15.5809L36.0316 14.6184L23.9376 22.041C23.3831 20.9669 22.2757 20.2342 21 20.2342C19.7244 20.2342 18.617 20.9669 18.0624 22.041L6.26959 14.8032C6.09906 15.1422 5.87375 15.448 5.60554 15.7086L17.7156 23.141C17.6949 23.2932 17.6842 23.4486 17.6842 23.6066C17.6842 25.3166 18.9357 26.7294 20.5579 26.9492V41.3677H21.6632V26.9115C23.1766 26.599 24.3158 25.2381 24.3158 23.6066Z" fill="#8C8C8C"/>
<path fill-rule="evenodd" clip-rule="evenodd" d="M38.6842 15.7377C39.9051 15.7377 40.8947 14.7311 40.8947 13.4895C40.8947 12.2478 39.9051 11.2412 38.6842 11.2412C37.4634 11.2412 36.4737 12.2478 36.4737 13.4895C36.4737 14.7311 37.4634 15.7377 38.6842 15.7377ZM38.6842 16.8618C40.5155 16.8618 42 15.352 42 13.4895C42 11.627 40.5155 10.1171 38.6842 10.1171C36.853 10.1171 35.3684 11.627 35.3684 13.4895C35.3684 15.352 36.853 16.8618 38.6842 16.8618Z" fill="#8C8C8C"/>
<path fill-rule="evenodd" clip-rule="evenodd" d="M21 46.8759C22.2208 46.8759 23.2105 45.8693 23.2105 44.6276C23.2105 43.386 22.2208 42.3794 21 42.3794C19.7792 42.3794 18.7895 43.386 18.7895 44.6276C18.7895 45.8693 19.7792 46.8759 21 46.8759ZM21 48C22.8313 48 24.3158 46.4901 24.3158 44.6276C24.3158 42.7651 22.8313 41.2553 21 41.2553C19.1687 41.2553 17.6842 42.7651 17.6842 44.6276C17.6842 46.4901 19.1687 48 21 48Z" fill="#8C8C8C"/>
<path fill-rule="evenodd" clip-rule="evenodd" d="M114.5 19C115.328 19 116 18.3284 116 17.5C116 16.6716 115.328 16 114.5 16C113.672 16 113 16.6716 113 17.5C113 18.3284 113.672 19 114.5 19ZM114.5 20C115.881 20 117 18.8807 117 17.5C117 16.1193 115.881 15 114.5 15C113.119 15 112 16.1193 112 17.5C112 18.8807 113.119 20 114.5 20Z" fill="#8C8C8C"/>
<path fill-rule="evenodd" clip-rule="evenodd" d="M113 19L110 21L109.445 20.168L112.445 18.168L113 19Z" fill="#8C8C8C"/>
<path d="M104.167 31.3201C102.754 31.3201 101.54 31.0068 100.527 30.3801C99.5268 29.7401 98.7735 28.8801 98.2668 27.8001C97.7602 26.7201 97.5068 25.5268 97.5068 24.2201C97.5068 22.9135 97.7602 21.7268 98.2668 20.6601C98.7735 19.5801 99.5268 18.7268 100.527 18.1001C101.54 17.4601 102.754 17.1401 104.167 17.1401C105.58 17.1401 106.787 17.4601 107.787 18.1001C108.8 18.7268 109.56 19.5801 110.067 20.6601C110.574 21.7268 110.827 22.9068 110.827 24.2001C110.827 25.5201 110.574 26.7201 110.067 27.8001C109.56 28.8801 108.8 29.7401 107.787 30.3801C106.787 31.0068 105.58 31.3201 104.167 31.3201ZM104.167 29.8801C105.18 29.8801 106.047 29.6401 106.767 29.1601C107.487 28.6668 108.034 27.9935 108.407 27.1401C108.78 26.2735 108.967 25.3001 108.967 24.2201C108.967 23.1401 108.78 22.1735 108.407 21.3201C108.034 20.4668 107.48 19.7935 106.747 19.3001C106.027 18.8068 105.167 18.5601 104.167 18.5601C103.154 18.5601 102.28 18.8068 101.547 19.3001C100.827 19.7935 100.28 20.4668 99.9068 21.3201C99.5335 22.1735 99.3468 23.1401 99.3468 24.2201C99.3468 25.3001 99.5335 26.2735 99.9068 27.1401C100.28 27.9935 100.827 28.6668 101.547 29.1601C102.28 29.6401 103.154 29.8801 104.167 29.8801Z" fill="#595959"/>
<path d="M95.7036 18.7999H91.1236V30.9999H89.2836V18.7999H84.7036V17.3999H95.7036V18.7999Z" fill="#595959"/>
<path d="M78.5394 17.3999C80.1394 17.3999 81.3461 17.7599 82.1594 18.4799C82.9861 19.1866 83.3994 20.1599 83.3994 21.3999C83.3994 22.6666 82.9861 23.6532 82.1594 24.3599C81.3461 25.0666 80.1394 25.4199 78.5394 25.4199H75.7594V30.9999H73.9194V17.3999H78.5394ZM78.5394 24.0199C80.5528 24.0199 81.5594 23.1466 81.5594 21.3999C81.5594 20.5732 81.2994 19.9332 80.7794 19.4799C80.2594 19.0132 79.5128 18.7799 78.5394 18.7799H75.7594V24.0199H78.5394Z" fill="#595959"/>
<path d="M67.8727 26.7802H62.4127L60.8727 31.0002H59.0327L64.3127 17.2202H66.0127L71.3127 31.0002H69.4327L67.8727 26.7802ZM67.3727 25.4002L65.1527 19.3602L62.9327 25.4002H67.3727Z" fill="#595959"/>
<path d="M47.2202 17.3999H49.0602V30.9999H47.2202V17.3999ZM58.1402 30.9999H55.9002L49.4002 23.8999V23.4999L55.1802 17.3999H57.3402L51.2602 23.6399L58.1402 30.9999Z" fill="#595959"/>
</svg>
